<svg xmlns="http://www.w3.org/2000/svg" id="Capa_2" data-name="Capa 2" viewBox="0 0 1139.73 379.8">
  <defs>
    
  </defs>
  <g id="Capa_1-2" data-name="Capa 1">
    <g>
      <g>
        <path class="cls-1" d="m256.52,0h197.88v13.78c0,49.65-40.31,89.95-89.95,89.95h-197.88v-13.78C166.57,40.31,206.87,0,256.52,0Z" fill="#FBB03B"></path>
        <path class="cls-1" d="m150.59,119.08h197.88v13.78c0,49.65-40.31,89.95-89.95,89.95H60.64v-13.78c0-49.65,40.31-89.95,89.95-89.95Z" fill="#FBB03B"></path>
        <path class="cls-1" d="m89.95,239.62h95.61v13.78c0,49.65-40.31,89.95-89.95,89.95H0v-13.78C0,279.93,40.31,239.62,89.95,239.62Z" fill="#FBB03B"></path>
      </g>
      <g>
        <path class="cls-1" d="m646.3,365.36h-28.88l-6.61,14.24h-1.55l21.93-47.24h1.35l21.93,47.24h-1.55l-6.61-14.24Zm-.61-1.28l-13.83-29.9-13.83,29.9h27.67Z" fill="#EEE2C8"></path>
        <path class="cls-1" d="m697.59,379.6l-12.01-16.67c-1.69.34-3.58.47-5.53.47h-14.65v16.2h-1.35v-47.24h16c11.61,0,18.56,5.74,18.56,15.52,0,7.63-4.25,12.82-11.61,14.71l12.28,17.01h-1.69Zm-17.41-17.48c11.07,0,17.07-5.2,17.07-14.24s-6.01-14.24-17.07-14.24h-14.78v28.48h14.78Z" fill="#EEE2C8"></path>
        <path class="cls-1" d="m746.79,356.45h1.28v17.28c-4.05,4.05-9.85,6.07-16.27,6.07-14.04,0-24.43-10.19-24.43-23.82s10.39-23.82,24.43-23.82c6.41,0,12.22,1.96,16.27,6.01l-.81.95c-4.32-4.12-9.52-5.67-15.46-5.67-13.23,0-23.08,9.79-23.08,22.54s9.85,22.54,23.08,22.54c5.74,0,10.93-1.48,14.98-5.33v-16.74Z" fill="#EEE2C8"></path>
        <path class="cls-1" d="m796.06,378.32v1.28h-31.45v-47.24h30.44v1.28h-29.09v21.33h26.05v1.28h-26.05v22.07h30.1Z" fill="#EEE2C8"></path>
        <path class="cls-1" d="m846.82,332.36v47.24h-1.15l-34.62-44.75v44.75h-1.35v-47.24h1.15l34.62,44.75v-44.75h1.35Z" fill="#EEE2C8"></path>
        <path class="cls-1" d="m873.62,333.64h-17.55v-1.28h36.44v1.28h-17.55v45.96h-1.35v-45.96Z" fill="#EEE2C8"></path>
        <path class="cls-1" d="m901.76,332.36h1.35v47.24h-1.35v-47.24Z" fill="#EEE2C8"></path>
        <path class="cls-1" d="m958.18,332.36v47.24h-1.15l-34.62-44.75v44.75h-1.35v-47.24h1.15l34.62,44.75v-44.75h1.35Z" fill="#EEE2C8"></path>
        <path class="cls-1" d="m1004.82,365.36h-28.89l-6.61,14.24h-1.55l21.93-47.24h1.35l21.93,47.24h-1.55l-6.61-14.24Zm-.61-1.28l-13.84-29.9-13.83,29.9h27.67Z" fill="#EEE2C8"></path>
      </g>
      <g>
        <path class="cls-1" d="m482.51,46.73h103.89v35.7h-64.62v69.61h50.69v35.7h-50.69v108.88h-39.27V46.73Z" fill="#EEE2C8"></path>
        <path class="cls-1" d="m605.31,46.73h39.27v249.9h-39.27V46.73Z" fill="#EEE2C8"></path>
        <path class="cls-1" d="m673.85,46.73h49.27l38.2,149.58h.71V46.73h34.99v249.9h-40.34l-47.12-182.43h-.71v182.43h-34.99V46.73Z" fill="#EEE2C8"></path>
        <path class="cls-1" d="m826.29,46.73h39.27v249.9h-39.27V46.73Z" fill="#EEE2C8"></path>
        <path class="cls-1" d="m925.53,82.43h-41.05v-35.7h121.38v35.7h-41.05v214.2h-39.27V82.43Z" fill="#EEE2C8"></path>
        <path class="cls-1" d="m1035.84,283.78c-10.24-10.95-15.35-26.42-15.35-46.41V105.99c0-19.99,5.11-35.46,15.35-46.41,10.23-10.95,24.99-16.42,44.27-16.42s34.03,5.48,44.27,16.42c10.23,10.95,15.35,26.42,15.35,46.41v131.38c0,19.99-5.12,35.46-15.35,46.41-10.24,10.95-24.99,16.42-44.27,16.42s-34.04-5.47-44.27-16.42Zm64.62-43.91V103.49c0-16.42-6.78-24.63-20.35-24.63s-20.35,8.21-20.35,24.63v136.37c0,16.42,6.78,24.63,20.35,24.63s20.35-8.21,20.35-24.63Z" fill="#EEE2C8"></path>
      </g>
    </g>
  </g>
</svg>